<svg id="splitsvg" version="1.1" xmlns="http://www.w3.org/2000/svg" xmlns:xlink="http://www.w3.org/1999/xlink" width="1380" height="726"><g id="svgg"><path id="path0" d="M111.947 52.799 C 111.947 52.982,111.721 53.133,111.445 53.133 C 111.170 53.133,110.944 53.283,110.944 53.467 C 110.944 53.651,110.643 53.801,110.276 53.801 C 109.904 53.801,109.607 54.024,109.607 54.302 C 109.607 54.637,109.273 54.804,108.605 54.804 C 108.053 54.804,107.602 54.954,107.602 55.138 C 107.602 55.322,107.335 55.472,107.008 55.472 C 106.681 55.472,106.196 55.773,105.931 56.140 C 105.667 56.508,105.257 56.809,105.022 56.809 C 104.787 56.809,104.595 56.959,104.595 57.143 C 104.595 57.327,104.327 57.477,104.000 57.477 C 103.673 57.477,103.189 57.778,102.924 58.145 C 102.659 58.513,102.175 58.814,101.848 58.814 C 101.521 58.814,101.253 58.964,101.253 59.148 C 101.253 59.332,100.986 59.482,100.659 59.482 C 100.332 59.482,99.844 59.787,99.576 60.159 C 99.305 60.536,98.532 60.925,97.837 61.036 C 97.121 61.151,96.157 61.647,95.581 62.197 C 95.028 62.726,94.349 63.158,94.072 63.158 C 93.794 63.158,93.567 63.308,93.567 63.492 C 93.567 63.676,93.342 63.826,93.066 63.826 C 92.790 63.826,92.565 63.977,92.565 64.160 C 92.565 64.344,92.264 64.495,91.896 64.495 C 90.435 64.495,91.131 65.741,92.727 65.980 C 93.577 66.108,94.408 66.462,94.648 66.801 C 94.881 67.128,95.279 67.464,95.533 67.548 C 95.869 67.657,95.723 67.996,94.995 68.793 C 94.127 69.743,93.581 70.038,92.481 70.150 C 92.343 70.164,92.231 70.401,92.231 70.677 C 92.231 70.952,92.080 71.178,91.896 71.178 C 91.713 71.178,91.562 70.941,91.562 70.652 C 91.562 70.341,91.335 70.171,91.005 70.234 C 90.183 70.394,90.047 71.178,90.842 71.178 C 91.212 71.178,91.714 71.366,91.957 71.596 C 92.201 71.825,93.001 72.343,93.736 72.745 C 95.707 73.826,95.282 75.796,93.066 75.850 C 91.922 75.878,91.609 76.314,91.500 78.033 C 91.403 79.578,91.324 79.711,90.393 79.909 C 89.078 80.188,110.383 80.265,112.401 79.988 L 113.952 79.775 113.952 75.644 C 113.952 73.112,114.081 71.512,114.286 71.512 C 114.495 71.512,114.620 69.507,114.620 66.165 C 114.620 62.824,114.495 60.819,114.286 60.819 C 114.086 60.819,113.952 59.538,113.952 57.644 C 113.952 55.750,114.086 54.470,114.286 54.470 C 114.782 54.470,114.690 53.490,114.142 52.942 C 113.600 52.399,111.947 52.292,111.947 52.799 M89.287 66.190 C 89.353 66.388,89.550 66.550,89.724 66.550 C 89.899 66.550,90.096 66.388,90.162 66.190 C 90.227 65.993,90.031 65.831,89.724 65.831 C 89.418 65.831,89.221 65.993,89.287 66.190 M86.680 67.495 C 85.880 67.819,85.416 68.718,85.896 69.015 C 86.072 69.123,86.216 69.053,86.216 68.858 C 86.216 68.664,86.452 68.505,86.741 68.505 C 87.363 68.505,88.278 67.671,87.982 67.375 C 87.727 67.120,87.572 67.135,86.680 67.495 M79.532 71.846 C 79.532 72.030,79.833 72.180,80.201 72.180 C 80.568 72.180,80.869 72.030,80.869 71.846 C 80.869 71.662,80.568 71.512,80.201 71.512 C 79.833 71.512,79.532 71.662,79.532 71.846 M76.525 73.851 C 76.525 74.035,76.825 74.185,77.193 74.185 C 77.561 74.185,77.861 74.035,77.861 73.851 C 77.861 73.668,77.561 73.517,77.193 73.517 C 76.825 73.517,76.525 73.668,76.525 73.851 M68.237 78.722 C 67.416 79.599,67.507 80.201,68.462 80.201 C 68.804 80.201,69.282 79.712,69.607 79.031 C 70.308 77.560,69.498 77.377,68.237 78.722 M66.834 97.400 C 66.834 97.699,67.030 97.815,67.335 97.698 C 67.611 97.592,67.836 97.371,67.836 97.207 C 67.836 97.043,67.611 96.909,67.335 96.909 C 67.059 96.909,66.834 97.130,66.834 97.400 M84.090 97.247 C 84.248 97.400,85.957 97.650,87.886 97.802 L 91.395 98.079 91.498 99.499 C 91.593 100.818,91.541 100.919,90.766 100.919 C 90.307 100.919,89.830 101.082,89.706 101.282 C 89.560 101.520,89.870 101.623,90.606 101.582 C 91.224 101.548,92.143 101.535,92.648 101.553 L 93.567 101.587 93.567 111.621 L 93.567 121.654 92.732 121.972 L 91.896 122.289 91.896 203.296 L 91.896 284.303 93.066 284.523 L 94.236 284.742 94.236 289.566 L 94.236 294.390 93.317 294.591 C 92.811 294.702,92.210 294.851,91.980 294.921 C 91.694 295.009,91.562 295.845,91.562 297.567 L 91.562 300.084 102.757 300.084 L 113.952 300.084 113.952 198.830 L 113.952 97.577 107.937 97.577 C 103.993 97.577,101.921 97.458,101.921 97.230 C 101.921 96.996,98.943 96.896,92.862 96.925 C 87.879 96.949,83.932 97.094,84.090 97.247 M283.968 98.162 C 283.832 98.680,284.043 98.734,285.808 98.632 C 286.905 98.568,288.423 98.688,289.181 98.897 C 289.939 99.107,291.559 99.309,292.780 99.347 C 294.001 99.384,294.846 99.511,294.659 99.628 C 294.108 99.972,294.706 100.585,295.592 100.585 C 296.041 100.585,296.408 100.735,296.408 100.919 C 296.408 101.103,296.041 101.253,295.592 101.253 C 295.143 101.253,294.683 101.404,294.570 101.587 C 294.456 101.771,293.771 101.921,293.046 101.921 L 291.729 101.921 291.729 111.961 C 291.729 119.799,291.821 121.989,292.147 121.947 C 292.377 121.917,293.016 121.910,293.567 121.932 L 294.570 121.972 294.502 127.235 C 294.465 130.130,294.427 132.826,294.418 133.228 C 294.407 133.770,294.167 133.984,293.484 134.063 C 291.814 134.255,292.015 135.673,293.711 135.673 C 294.459 135.673,295.071 135.522,295.071 135.338 C 295.071 135.155,295.221 135.004,295.405 135.004 C 295.966 135.004,295.777 135.615,295.155 135.815 C 294.405 136.056,294.218 139.348,294.954 139.348 C 295.202 139.348,295.405 139.198,295.405 139.014 C 295.405 138.830,295.994 138.680,296.714 138.680 C 297.464 138.680,298.082 138.502,298.162 138.262 C 298.269 137.941,300.525 137.845,307.937 137.845 C 315.348 137.845,317.604 137.941,317.711 138.262 C 317.791 138.502,318.409 138.680,319.159 138.680 C 319.879 138.680,320.468 138.830,320.468 139.014 C 320.468 139.198,320.844 139.348,321.303 139.348 C 321.763 139.348,322.139 139.499,322.139 139.683 C 322.139 139.866,322.439 140.017,322.807 140.017 C 323.175 140.017,323.475 140.167,323.475 140.351 C 323.475 140.535,323.776 140.685,324.144 140.685 C 324.511 140.685,324.812 140.835,324.812 141.019 C 324.812 141.203,325.253 141.353,325.792 141.353 C 326.479 141.353,326.836 141.554,326.984 142.022 C 327.101 142.389,327.487 142.690,327.842 142.690 C 328.197 142.690,328.488 142.840,328.488 143.024 C 328.488 143.208,328.789 143.358,329.156 143.358 C 329.524 143.358,329.825 143.509,329.825 143.693 C 329.825 143.876,330.061 144.027,330.350 144.027 C 330.639 144.027,331.100 144.252,331.376 144.528 C 331.652 144.804,332.157 145.029,332.499 145.029 C 332.841 145.029,333.217 145.330,333.333 145.698 C 333.450 146.065,333.765 146.366,334.034 146.366 C 334.302 146.366,335.946 147.794,337.686 149.541 C 340.000 151.862,341.075 152.715,341.687 152.715 L 342.523 152.715 342.523 133.819 L 342.523 114.924 341.703 114.103 C 341.252 113.652,340.718 113.283,340.517 113.283 C 340.316 113.283,339.803 112.907,339.378 112.448 C 338.952 111.988,338.391 111.612,338.131 111.612 C 337.871 111.612,337.441 111.312,337.176 110.944 C 336.911 110.576,336.427 110.276,336.100 110.276 C 335.773 110.276,335.505 110.125,335.505 109.942 C 335.505 109.758,335.205 109.607,334.837 109.607 C 334.470 109.607,334.169 109.457,334.169 109.273 C 334.169 109.089,334.004 108.939,333.802 108.939 C 333.600 108.939,333.013 108.488,332.498 107.937 C 331.983 107.385,331.321 106.934,331.027 106.934 C 330.733 106.934,330.493 106.784,330.493 106.600 C 330.493 106.416,330.053 106.266,329.514 106.266 C 328.976 106.266,328.310 106.040,328.034 105.764 C 327.759 105.489,327.372 105.263,327.175 105.263 C 326.978 105.263,326.817 105.113,326.817 104.929 C 326.817 104.745,326.516 104.595,326.149 104.595 C 325.781 104.595,325.480 104.444,325.480 104.261 C 325.480 104.077,325.029 103.926,324.478 103.926 C 323.926 103.926,323.475 103.776,323.475 103.592 C 323.475 103.409,323.175 103.258,322.807 103.258 C 322.439 103.258,322.139 103.108,322.139 102.924 C 322.139 102.740,321.763 102.590,321.303 102.590 C 320.844 102.590,320.468 102.439,320.468 102.256 C 320.468 102.072,320.017 101.921,319.465 101.921 C 318.914 101.921,318.463 101.771,318.463 101.587 C 318.463 101.404,318.012 101.253,317.460 101.253 C 316.909 101.253,316.458 101.103,316.458 100.919 C 316.458 100.735,316.157 100.585,315.789 100.585 C 315.422 100.585,315.121 100.447,315.121 100.279 C 315.121 100.111,313.993 99.868,312.615 99.739 C 311.236 99.609,310.109 99.371,310.109 99.209 C 310.109 99.047,309.432 98.914,308.605 98.914 C 307.778 98.914,307.101 98.764,307.101 98.580 C 307.101 98.389,306.099 98.246,304.762 98.246 C 303.425 98.246,302.423 98.102,302.423 97.911 C 302.423 97.233,284.147 97.481,283.968 98.162 M279.220 98.545 C 278.932 99.011,279.889 99.238,281.277 99.035 C 281.972 98.933,282.728 98.839,282.957 98.826 C 283.187 98.813,283.375 98.677,283.375 98.524 C 283.375 98.148,279.453 98.167,279.220 98.545 M271.345 100.322 C 271.345 100.691,272.267 100.651,272.502 100.271 C 272.609 100.098,272.392 99.980,272.021 100.008 C 271.649 100.036,271.345 100.177,271.345 100.322 M269.006 100.919 C 269.006 101.103,269.307 101.253,269.674 101.253 C 270.042 101.253,270.343 101.103,270.343 100.919 C 270.343 100.735,270.042 100.585,269.674 100.585 C 269.307 100.585,269.006 100.735,269.006 100.919 M292.732 139.683 C 292.732 139.866,292.957 140.017,293.233 140.017 C 293.509 140.017,293.734 139.866,293.734 139.683 C 293.734 139.499,293.509 139.348,293.233 139.348 C 292.957 139.348,292.732 139.499,292.732 139.683 M290.727 139.990 C 290.451 140.153,289.446 140.540,288.494 140.851 C 287.274 141.249,286.815 141.555,286.942 141.886 C 287.063 142.201,286.883 142.356,286.399 142.356 C 286.001 142.356,285.768 142.506,285.881 142.690 C 285.995 142.874,285.870 143.024,285.603 143.024 C 285.336 143.024,285.027 143.259,284.917 143.547 C 284.807 143.834,284.558 143.971,284.365 143.852 C 283.988 143.619,283.041 144.252,283.041 144.736 C 283.041 144.897,283.266 145.029,283.542 145.029 C 283.818 145.029,284.043 144.870,284.043 144.675 C 284.043 144.481,284.178 144.405,284.343 144.506 C 284.507 144.608,284.732 144.457,284.841 144.171 C 284.951 143.884,285.194 143.745,285.380 143.860 C 285.771 144.101,286.789 143.208,286.478 142.897 C 286.364 142.783,286.831 142.690,287.516 142.690 C 288.261 142.690,288.678 142.556,288.555 142.356 C 288.441 142.172,288.658 142.022,289.036 142.022 C 289.415 142.022,289.724 141.871,289.724 141.688 C 289.724 141.504,290.025 141.353,290.393 141.353 C 290.760 141.353,291.061 141.203,291.061 141.019 C 291.061 140.835,291.374 140.685,291.757 140.685 C 292.166 140.685,292.396 140.512,292.314 140.267 C 292.138 139.738,291.377 139.606,290.727 139.990 M133.166 143.024 C 133.053 143.208,133.185 143.358,133.461 143.358 C 133.737 143.358,134.055 143.208,134.169 143.024 C 134.282 142.840,134.150 142.690,133.874 142.690 C 133.598 142.690,133.280 142.840,133.166 143.024 M281.454 145.565 C 280.629 146.506,280.495 147.034,281.080 147.034 C 281.576 147.034,282.707 145.721,282.707 145.145 C 282.707 144.470,282.292 144.609,281.454 145.565 M340.518 245.318 C 340.058 245.879,339.322 246.664,338.882 247.062 C 338.441 247.460,337.734 248.124,337.309 248.538 C 336.885 248.952,336.366 249.290,336.156 249.290 C 335.946 249.290,335.352 249.741,334.837 250.292 C 334.322 250.844,333.796 251.295,333.668 251.295 C 333.539 251.295,333.013 251.746,332.498 252.297 C 331.983 252.849,331.385 253.300,331.170 253.300 C 330.955 253.300,330.554 253.525,330.278 253.801 C 330.002 254.077,329.373 254.302,328.879 254.302 C 328.342 254.302,327.812 254.572,327.563 254.971 C 327.333 255.338,326.921 255.639,326.647 255.639 C 326.373 255.639,326.149 255.789,326.149 255.973 C 326.149 256.157,325.848 256.307,325.480 256.307 C 325.113 256.307,324.812 256.458,324.812 256.642 C 324.812 256.825,324.361 256.976,323.810 256.976 C 323.258 256.976,322.807 257.126,322.807 257.310 C 322.807 257.494,322.506 257.644,322.139 257.644 C 321.771 257.644,321.470 257.794,321.470 257.978 C 321.470 258.162,321.094 258.312,320.635 258.312 C 320.175 258.312,319.799 258.463,319.799 258.647 C 319.799 258.830,319.048 258.981,318.129 258.981 C 317.210 258.981,316.458 259.131,316.458 259.315 C 316.458 259.499,315.781 259.649,314.954 259.649 C 314.127 259.649,313.450 259.799,313.450 259.983 C 313.450 260.193,311.390 260.317,307.937 260.317 C 304.483 260.317,302.423 260.193,302.423 259.983 C 302.423 259.799,301.896 259.649,301.253 259.649 C 300.610 259.649,300.084 259.499,300.084 259.315 C 300.084 259.131,299.332 258.981,298.413 258.981 C 297.494 258.981,296.742 258.830,296.742 258.647 C 296.742 258.463,296.366 258.312,295.906 258.312 C 295.447 258.312,295.071 258.162,295.071 257.978 C 295.071 257.794,294.620 257.644,294.069 257.644 C 293.517 257.644,293.066 257.494,293.066 257.310 C 293.066 257.126,292.765 256.976,292.398 256.976 C 292.030 256.976,291.729 256.825,291.729 256.642 C 291.729 256.458,291.278 256.307,290.727 256.307 C 290.175 256.307,289.724 256.174,289.724 256.010 C 289.724 255.847,289.461 255.734,289.140 255.760 C 288.804 255.786,288.596 255.610,288.652 255.347 C 288.714 255.053,288.562 254.961,288.227 255.089 C 287.930 255.203,287.418 255.004,287.043 254.629 C 286.383 253.968,285.380 253.731,285.380 254.236 C 285.380 254.708,286.164 255.305,286.784 255.305 C 287.114 255.305,287.385 255.419,287.385 255.558 C 287.385 255.696,287.874 256.007,288.471 256.247 C 289.069 256.488,289.783 256.825,290.058 256.995 C 290.742 257.419,293.101 258.531,293.818 258.767 C 294.140 258.873,294.403 259.183,294.403 259.456 C 294.403 260.130,292.223 260.532,291.559 259.980 C 291.213 259.694,291.061 259.682,291.061 259.942 C 291.061 260.149,290.784 260.317,290.444 260.317 C 290.105 260.317,289.575 260.597,289.266 260.938 C 288.402 261.893,289.234 262.322,291.873 262.282 C 294.787 262.239,294.652 261.910,294.477 268.582 L 294.326 274.340 292.693 274.556 L 291.061 274.773 291.061 279.519 L 291.061 284.266 292.648 284.572 L 294.236 284.879 294.328 289.767 L 294.420 294.654 295.729 294.863 C 296.449 294.979,297.134 295.229,297.253 295.421 C 297.496 295.814,296.793 296.813,296.431 296.589 C 296.301 296.509,295.761 296.849,295.231 297.345 C 294.405 298.115,293.737 298.319,290.601 298.751 C 284.496 299.594,285.514 300.084,293.372 300.084 C 297.624 300.084,300.084 299.961,300.084 299.749 C 300.084 299.556,301.142 299.415,302.590 299.415 C 303.968 299.415,305.096 299.279,305.096 299.112 C 305.096 298.946,306.525 298.702,308.271 298.571 C 310.017 298.440,311.445 298.201,311.445 298.039 C 311.445 297.877,311.896 297.744,312.448 297.744 C 312.999 297.744,313.450 297.594,313.450 297.410 C 313.450 297.226,313.977 297.076,314.620 297.076 C 315.263 297.076,315.789 296.926,315.789 296.742 C 315.789 296.558,316.241 296.408,316.792 296.408 C 317.343 296.408,317.794 296.257,317.794 296.074 C 317.794 295.890,318.246 295.739,318.797 295.739 C 319.348 295.739,319.799 295.589,319.799 295.405 C 319.799 295.221,320.175 295.071,320.635 295.071 C 321.094 295.071,321.470 294.921,321.470 294.737 C 321.470 294.553,321.771 294.403,322.139 294.403 C 322.506 294.403,322.807 294.252,322.807 294.069 C 322.807 293.885,323.108 293.734,323.475 293.734 C 323.843 293.734,324.144 293.584,324.144 293.400 C 324.144 293.216,324.595 293.066,325.146 293.066 C 325.698 293.066,326.149 292.922,326.149 292.747 C 326.149 292.572,326.675 292.329,327.318 292.209 C 327.962 292.088,328.488 291.855,328.488 291.692 C 328.488 291.529,328.755 291.395,329.082 291.395 C 329.409 291.395,329.894 291.094,330.159 290.727 C 330.424 290.359,330.908 290.058,331.235 290.058 C 331.562 290.058,331.830 289.908,331.830 289.724 C 331.830 289.541,332.130 289.390,332.498 289.390 C 332.865 289.390,333.166 289.240,333.166 289.056 C 333.166 288.872,333.331 288.722,333.533 288.722 C 333.735 288.722,334.322 288.271,334.837 287.719 C 335.352 287.168,336.014 286.717,336.308 286.717 C 336.602 286.717,336.842 286.566,336.842 286.383 C 336.842 286.199,337.132 286.048,337.487 286.048 C 337.841 286.048,338.357 285.823,338.632 285.547 C 338.908 285.272,339.261 285.046,339.418 285.046 C 339.574 285.046,339.919 284.745,340.184 284.378 C 340.449 284.010,340.933 283.709,341.260 283.709 C 341.632 283.709,341.855 283.459,341.855 283.041 C 341.855 282.673,342.005 282.373,342.189 282.373 C 342.408 282.373,342.523 275.801,342.523 263.325 C 342.523 242.296,342.579 242.800,340.518 245.318 M120.301 246.430 C 120.301 246.878,120.451 247.338,120.635 247.452 C 120.819 247.566,120.971 247.537,120.974 247.388 C 120.976 247.239,121.069 246.779,121.180 246.366 C 121.328 245.813,121.238 245.614,120.841 245.614 C 120.491 245.614,120.301 245.901,120.301 246.430 M277.193 298.413 C 277.307 298.596,277.691 298.747,278.048 298.747 C 278.405 298.747,278.697 298.596,278.697 298.413 C 278.697 298.229,278.312 298.079,277.842 298.079 C 277.357 298.079,277.076 298.223,277.193 298.413 M280.601 298.625 C 280.112 299.114,280.405 299.415,281.370 299.415 C 281.921 299.415,282.373 299.265,282.373 299.081 C 282.373 298.897,282.235 298.747,282.066 298.747 C 281.897 298.747,281.551 298.667,281.296 298.569 C 281.042 298.472,280.729 298.497,280.601 298.625  M -25 0 L -5 0 L -5 20 L -25 20 Z M 405 0 L 425 0 L 425 20 L 405 20 Z" stroke="none" fill="#e386d4" fill-rule="evenodd" transform="translate(30,0)"></path><path id="path1" d="M161.069 97.911 C 161.069 98.102,160.067 98.246,158.730 98.246 C 157.393 98.246,156.391 98.389,156.391 98.580 C 156.391 98.764,155.714 98.914,154.887 98.914 C 154.060 98.914,153.383 99.043,153.383 99.202 C 153.383 99.438,151.901 99.692,148.789 99.988 C 148.559 100.010,148.371 100.153,148.371 100.306 C 148.371 100.459,148.011 100.585,147.571 100.585 C 146.733 100.585,146.150 101.415,146.734 101.776 C 147.338 102.148,151.710 101.542,152.240 101.012 C 153.018 100.234,162.406 100.774,162.406 101.596 C 162.406 101.744,162.223 101.927,162.000 102.001 C 161.687 102.105,161.613 105.567,161.680 117.014 C 161.756 130.085,161.704 131.943,161.251 132.319 C 160.967 132.554,160.735 132.939,160.735 133.174 C 160.735 133.410,160.246 133.776,159.649 133.989 L 158.563 134.377 159.512 134.884 C 160.033 135.163,160.402 135.449,160.331 135.520 C 160.016 135.835,152.848 135.896,152.461 135.587 C 151.774 135.039,145.461 136.691,145.849 137.317 C 145.954 137.488,145.775 137.697,145.451 137.784 C 145.127 137.870,146.667 137.862,148.872 137.766 C 151.078 137.671,153.025 137.461,153.200 137.301 C 153.600 136.933,156.294 136.916,156.519 137.280 C 156.611 137.429,157.409 137.578,158.293 137.612 C 162.171 137.762,165.414 138.114,165.414 138.385 C 165.414 138.547,165.865 138.680,166.416 138.680 C 166.967 138.680,167.419 138.830,167.419 139.014 C 167.419 139.198,167.794 139.348,168.254 139.348 C 168.713 139.348,169.089 139.499,169.089 139.683 C 169.089 139.866,169.541 140.017,170.092 140.017 C 170.643 140.017,171.094 140.167,171.094 140.351 C 171.094 140.535,171.395 140.685,171.763 140.685 C 172.130 140.685,172.431 140.835,172.431 141.019 C 172.431 141.203,172.732 141.353,173.099 141.353 C 173.467 141.353,173.768 141.476,173.768 141.625 C 173.768 141.775,174.294 142.103,174.937 142.356 C 175.581 142.608,176.107 142.937,176.107 143.087 C 176.107 143.236,176.384 143.358,176.723 143.358 C 177.063 143.358,177.600 143.646,177.918 143.997 C 178.235 144.348,178.860 144.727,179.306 144.838 C 179.752 144.950,180.117 145.189,180.117 145.370 C 180.117 145.550,180.326 145.698,180.581 145.698 C 180.836 145.698,181.400 146.147,181.834 146.697 C 182.268 147.247,182.886 147.698,183.208 147.700 C 183.569 147.701,183.793 147.958,183.793 148.371 C 183.793 148.759,184.016 149.039,184.324 149.039 C 184.936 149.039,189.474 153.441,189.474 154.034 C 189.474 154.252,190.226 155.162,191.145 156.057 C 192.063 156.952,192.815 157.844,192.815 158.040 C 192.815 158.236,192.966 158.396,193.150 158.396 C 193.333 158.396,193.484 158.661,193.484 158.984 C 193.484 159.308,193.860 159.978,194.319 160.473 C 194.779 160.969,195.155 161.573,195.155 161.816 C 195.155 162.060,195.455 162.475,195.823 162.740 C 196.190 163.005,196.491 163.531,196.491 163.910 C 196.491 164.288,196.792 164.814,197.160 165.079 C 197.527 165.344,197.828 165.829,197.828 166.156 C 197.828 166.483,197.978 166.750,198.162 166.750 C 198.346 166.750,198.496 167.051,198.496 167.419 C 198.496 167.786,198.647 168.087,198.830 168.087 C 199.014 168.087,199.165 168.370,199.165 168.717 C 199.165 169.064,199.389 169.778,199.664 170.304 C 199.938 170.831,200.167 171.487,200.171 171.763 C 200.176 172.038,200.628 173.077,201.176 174.072 C 201.724 175.066,202.172 176.382,202.172 176.996 C 202.172 177.610,202.322 178.112,202.506 178.112 C 202.690 178.112,202.840 178.713,202.840 179.449 C 202.840 180.184,202.991 180.785,203.175 180.785 C 203.358 180.785,203.509 181.312,203.509 181.955 C 203.509 182.598,203.659 183.124,203.843 183.124 C 204.029 183.124,204.177 184.016,204.177 185.129 C 204.177 186.243,204.326 187.135,204.511 187.135 C 204.711 187.135,204.845 188.415,204.845 190.309 C 204.845 192.055,204.977 193.484,205.139 193.484 C 205.869 193.484,206.121 192.332,206.345 187.970 C 206.478 185.397,206.689 183.141,206.814 182.957 C 206.940 182.774,207.076 182.172,207.117 181.621 C 207.226 180.150,208.551 173.710,208.904 172.932 C 209.071 172.565,209.334 171.512,209.487 170.593 C 209.825 168.577,211.156 163.772,211.570 163.074 C 211.733 162.799,211.951 162.348,212.054 162.072 C 212.156 161.796,212.451 161.119,212.708 160.568 C 212.966 160.017,213.280 159.114,213.405 158.563 C 213.531 158.012,214.063 157.067,214.587 156.463 C 215.391 155.536,215.748 154.400,215.581 153.306 C 215.560 153.172,215.904 152.826,216.345 152.537 C 216.785 152.248,217.239 151.643,217.352 151.192 C 217.465 150.741,218.532 148.935,219.723 147.179 C 220.914 145.422,221.888 143.860,221.888 143.708 C 221.888 143.285,222.730 143.053,223.203 143.345 C 223.999 143.837,224.027 148.353,223.244 149.862 C 222.376 151.533,222.374 152.255,223.236 152.481 C 223.894 152.653,223.911 152.836,223.743 157.950 C 223.294 171.677,223.131 203.077,223.508 203.310 C 224.311 203.807,224.030 247.039,223.225 246.784 C 222.631 246.595,222.556 246.724,222.556 247.931 C 222.556 249.184,222.776 249.466,223.642 249.329 C 223.944 249.282,223.969 253.295,223.679 255.054 C 223.420 256.620,222.998 256.647,222.368 255.138 C 222.099 254.495,221.656 253.968,221.382 253.968 C 221.109 253.968,220.903 253.855,220.925 253.718 C 221.101 252.601,220.681 251.580,219.514 250.292 C 217.755 248.351,217.380 247.599,216.672 244.590 C 216.194 242.562,215.852 241.870,214.810 240.826 C 214.108 240.123,213.532 239.221,213.529 238.821 C 213.526 238.422,213.307 237.719,213.042 237.260 C 212.777 236.800,212.400 236.048,212.205 235.589 C 212.009 235.129,211.700 234.453,211.518 234.085 C 211.186 233.415,210.823 232.171,209.424 226.901 C 209.009 225.338,208.549 223.867,208.401 223.631 C 208.107 223.159,207.685 220.580,207.186 216.207 C 206.112 206.780,205.876 205.514,205.188 205.514 C 204.989 205.514,204.845 206.426,204.845 207.686 C 204.845 208.911,204.700 209.858,204.511 209.858 C 204.327 209.858,204.177 210.610,204.177 211.529 C 204.177 212.448,204.027 213.200,203.843 213.200 C 203.657 213.200,203.509 214.091,203.509 215.205 C 203.509 216.319,203.360 217.210,203.175 217.210 C 202.991 217.210,202.840 217.586,202.840 218.045 C 202.840 218.505,202.690 218.881,202.506 218.881 C 202.322 218.881,202.172 219.262,202.172 219.728 C 202.172 220.194,201.915 220.968,201.600 221.448 C 201.271 221.950,201.069 222.798,201.124 223.441 C 201.196 224.279,201.088 224.561,200.694 224.561 C 200.404 224.561,200.187 224.674,200.212 224.812 C 200.311 225.369,199.730 227.235,199.457 227.235 C 199.296 227.235,199.165 227.536,199.165 227.903 C 199.165 228.271,199.014 228.571,198.830 228.571 C 198.647 228.571,198.496 228.947,198.496 229.407 C 198.496 229.866,198.346 230.242,198.162 230.242 C 197.978 230.242,197.828 230.543,197.828 230.911 C 197.828 231.278,197.678 231.579,197.494 231.579 C 197.310 231.579,197.160 231.880,197.160 232.247 C 197.160 232.615,197.009 232.916,196.825 232.916 C 196.642 232.916,196.491 233.161,196.491 233.461 C 196.491 233.761,196.217 234.250,195.881 234.547 C 195.546 234.845,195.058 235.576,194.797 236.174 C 194.536 236.771,194.201 237.260,194.051 237.260 C 193.901 237.260,193.854 237.383,193.947 237.533 C 194.040 237.683,193.824 238.017,193.466 238.275 C 193.108 238.533,192.815 238.954,192.815 239.210 C 192.815 239.466,192.214 240.203,191.479 240.847 C 190.744 241.491,190.142 242.146,190.142 242.301 C 190.142 243.041,184.380 248.798,182.957 249.478 C 182.406 249.742,181.654 250.409,181.287 250.960 C 180.919 251.511,180.388 251.962,180.107 251.962 C 179.826 251.963,179.379 252.264,179.114 252.632 C 178.850 252.999,178.365 253.300,178.038 253.300 C 177.711 253.300,177.444 253.434,177.444 253.597 C 177.444 253.760,176.914 253.993,176.267 254.115 C 175.619 254.236,174.906 254.629,174.682 254.987 C 174.458 255.346,174.011 255.639,173.687 255.639 C 173.364 255.639,173.099 255.789,173.099 255.973 C 173.099 256.157,172.799 256.307,172.431 256.307 C 172.063 256.307,171.763 256.458,171.763 256.642 C 171.763 256.825,171.312 256.976,170.760 256.976 C 170.209 256.976,169.757 257.089,169.755 257.226 C 169.752 257.565,168.099 258.312,167.352 258.312 C 167.021 258.312,166.750 258.463,166.750 258.647 C 166.750 258.830,166.082 258.981,165.266 258.981 C 164.450 258.981,163.689 259.131,163.576 259.315 C 163.462 259.499,162.551 259.649,161.551 259.649 C 160.551 259.649,159.733 259.799,159.733 259.983 C 159.733 260.509,149.808 260.427,149.594 259.900 C 149.466 259.585,149.337 259.606,149.070 259.983 C 148.829 260.323,148.714 260.350,148.710 260.067 C 148.707 259.837,148.492 259.649,148.232 259.649 C 147.971 259.649,147.682 259.837,147.590 260.067 C 147.455 260.401,147.416 260.401,147.395 260.067 C 147.365 259.600,146.032 259.480,146.032 259.944 C 146.032 260.496,151.110 261.422,156.415 261.836 C 159.258 262.059,160.615 262.587,160.472 263.417 C 160.420 263.722,160.683 264.164,161.057 264.397 C 161.825 264.877,162.161 294.102,161.404 294.570 C 160.838 294.919,161.033 295.405,161.738 295.405 C 162.105 295.405,162.406 295.556,162.406 295.739 C 162.406 295.923,162.197 296.074,161.941 296.074 C 161.684 296.074,161.385 296.307,161.276 296.593 C 161.030 297.234,152.666 297.095,152.449 296.446 C 152.381 296.241,151.994 296.074,151.590 296.074 C 151.185 296.074,149.977 295.765,148.905 295.388 C 146.882 294.678,144.010 294.605,143.795 295.259 C 143.731 295.455,144.433 295.820,145.356 296.072 C 146.279 296.323,147.034 296.652,147.034 296.802 C 147.034 296.953,147.552 297.076,148.184 297.076 C 148.817 297.076,149.427 297.226,149.541 297.410 C 149.654 297.594,150.264 297.744,150.897 297.744 C 151.529 297.744,152.047 297.881,152.047 298.049 C 152.047 298.217,152.799 298.315,153.718 298.268 C 154.637 298.221,155.388 298.310,155.388 298.465 C 155.388 298.620,156.065 298.747,156.892 298.747 C 157.719 298.747,158.396 298.897,158.396 299.081 C 158.396 299.274,159.454 299.415,160.902 299.415 C 162.350 299.415,163.409 299.556,163.409 299.749 C 163.409 299.960,165.748 300.084,169.758 300.084 C 173.768 300.084,176.107 299.960,176.107 299.749 C 176.107 299.553,177.277 299.415,178.947 299.415 C 180.510 299.415,181.788 299.287,181.788 299.131 C 181.788 298.975,183.179 298.748,184.879 298.628 C 186.579 298.507,188.020 298.259,188.081 298.076 C 188.143 297.894,188.698 297.744,189.315 297.744 C 189.932 297.744,190.530 297.594,190.643 297.410 C 190.757 297.226,191.262 297.076,191.766 297.076 C 192.765 297.076,194.479 296.391,194.484 295.990 C 194.485 295.852,194.937 295.739,195.489 295.739 C 196.040 295.739,196.491 295.589,196.491 295.405 C 196.491 295.221,196.942 295.071,197.494 295.071 C 198.045 295.071,198.496 294.921,198.496 294.737 C 198.496 294.553,198.872 294.403,199.332 294.403 C 199.791 294.403,200.167 294.252,200.167 294.069 C 200.167 293.885,200.468 293.734,200.835 293.734 C 201.203 293.734,201.504 293.584,201.504 293.400 C 201.504 293.216,201.805 293.066,202.172 293.066 C 202.540 293.066,202.840 292.916,202.840 292.732 C 202.840 292.548,203.207 292.398,203.656 292.398 C 204.105 292.398,204.559 292.257,204.665 292.085 C 204.919 291.674,206.828 290.727,207.403 290.727 C 207.651 290.727,207.853 290.576,207.853 290.393 C 207.853 290.209,208.066 290.058,208.326 290.058 C 208.587 290.058,208.850 289.940,208.911 289.796 C 209.111 289.323,211.118 288.053,211.664 288.053 C 212.350 288.053,212.356 287.425,211.673 287.163 C 211.096 286.942,209.896 287.490,208.875 288.441 C 208.512 288.779,208.063 289.056,207.877 289.056 C 207.515 289.056,205.284 290.243,204.597 290.802 C 204.368 290.988,203.891 291.064,203.538 290.972 C 202.808 290.781,198.973 291.557,198.061 292.080 C 197.516 292.392,195.519 292.285,194.099 291.867 C 193.054 291.559,192.987 289.724,194.021 289.724 C 194.277 289.724,194.486 289.591,194.486 289.427 C 194.486 289.264,194.993 289.035,195.613 288.919 C 198.966 288.290,198.999 286.383,195.656 286.383 L 193.150 286.383 193.150 275.374 L 193.150 264.366 194.570 264.263 L 195.990 264.160 196.082 259.273 C 196.184 253.886,196.225 253.987,193.901 253.973 C 193.156 253.968,193.150 253.924,193.150 249.123 L 193.150 244.277 194.132 244.277 C 195.413 244.277,195.609 243.896,195.524 241.560 C 195.452 239.547,195.792 238.532,196.893 237.476 C 197.248 237.136,197.456 236.641,197.355 236.378 C 197.254 236.114,197.393 235.813,197.665 235.708 C 197.936 235.604,198.078 235.390,197.981 235.232 C 197.883 235.074,198.124 234.625,198.515 234.234 C 198.906 233.843,199.452 232.822,199.728 231.966 C 200.004 231.110,200.592 229.616,201.034 228.646 C 201.476 227.676,201.838 226.501,201.838 226.034 C 201.838 225.568,202.127 224.482,202.480 223.621 C 202.834 222.760,203.217 221.491,203.331 220.802 C 203.445 220.113,203.668 219.549,203.825 219.549 C 203.983 219.549,204.269 219.098,204.461 218.546 C 205.124 216.645,205.872 217.928,206.379 221.833 C 206.510 222.847,206.806 223.691,207.064 223.790 C 207.347 223.899,207.519 224.493,207.519 225.365 C 207.519 226.135,207.967 228.037,208.515 229.590 C 209.062 231.143,209.514 232.744,209.517 233.147 C 209.521 233.549,209.674 233.972,209.858 234.085 C 210.042 234.199,210.192 234.646,210.192 235.080 C 210.192 236.403,211.448 238.908,212.308 239.300 C 213.010 239.620,213.133 239.955,213.307 242.037 C 213.444 243.671,213.720 244.700,214.194 245.341 C 214.573 245.852,215.406 247.364,216.047 248.700 C 217.156 251.013,218.276 252.833,219.310 254.002 C 219.570 254.296,219.961 255.048,220.178 255.672 C 220.750 257.315,222.151 259.315,222.728 259.315 C 223.001 259.315,223.225 259.535,223.225 259.805 C 223.225 260.074,223.676 260.756,224.227 261.320 C 224.779 261.884,225.230 262.561,225.230 262.824 C 225.230 263.087,225.643 263.746,226.149 264.288 C 226.654 264.830,227.470 265.728,227.961 266.283 C 230.153 268.758,233.235 269.802,233.533 268.170 C 233.601 267.803,234.166 267.031,234.789 266.455 C 235.413 265.878,235.923 265.180,235.923 264.903 C 235.923 264.626,236.127 264.321,236.375 264.226 C 236.624 264.130,237.004 263.151,237.221 262.049 C 237.438 260.948,237.886 259.694,238.218 259.263 C 239.856 257.133,240.777 254.994,240.350 254.310 C 239.879 253.556,239.777 249.405,240.225 249.234 C 240.391 249.171,240.366 239.357,240.167 226.455 C 239.879 207.824,239.894 203.739,240.255 203.517 C 240.612 203.296,240.664 198.597,240.537 177.991 C 240.441 162.477,240.502 152.614,240.695 152.422 C 241.192 151.924,240.620 142.422,240.059 141.861 C 239.806 141.608,239.599 141.307,239.599 141.192 C 239.599 141.078,239.227 140.437,238.773 139.768 C 238.318 139.099,237.546 137.265,237.056 135.692 C 235.837 131.777,235.346 130.732,234.519 130.290 C 234.129 130.081,233.215 129.321,232.488 128.602 L 231.167 127.294 229.699 128.848 C 228.891 129.703,228.142 130.756,228.034 131.188 C 227.925 131.620,227.588 132.059,227.285 132.165 C 226.982 132.271,226.424 132.991,226.045 133.765 C 225.667 134.538,224.952 135.367,224.458 135.607 C 223.963 135.847,223.559 136.200,223.559 136.391 C 223.559 136.583,222.954 137.427,222.215 138.267 C 221.475 139.107,220.783 140.182,220.676 140.657 C 220.569 141.132,220.148 141.821,219.740 142.189 C 219.333 142.556,218.827 143.459,218.616 144.194 C 218.404 144.929,217.714 146.332,217.082 147.311 C 216.450 148.290,215.755 149.569,215.538 150.151 C 215.078 151.388,214.739 152.112,213.867 153.718 C 213.518 154.361,213.225 155.301,213.216 155.806 C 213.206 156.385,213.018 156.725,212.708 156.725 C 212.029 156.725,210.647 159.886,209.889 163.174 C 209.542 164.681,209.014 166.892,208.716 168.087 C 206.859 175.529,205.510 181.400,205.491 182.122 C 205.449 183.670,203.728 178.386,203.313 175.439 C 202.970 172.999,201.282 168.425,200.477 167.753 C 200.043 167.390,199.629 164.861,199.862 163.995 C 200.134 162.982,200.094 162.935,198.684 162.597 C 197.454 162.302,196.850 161.527,196.836 160.228 C 196.830 159.673,196.431 158.639,195.948 157.929 C 195.228 156.868,195.071 156.256,195.071 154.503 C 195.071 153.329,194.939 152.287,194.779 152.188 C 194.366 151.933,194.406 142.779,194.820 142.523 C 195.031 142.393,195.155 138.572,195.155 132.164 C 195.155 125.756,195.031 121.935,194.820 121.805 C 193.981 121.286,194.422 111.455,195.322 110.610 C 196.320 109.672,196.465 108.008,195.572 107.741 C 193.904 107.241,193.317 106.725,193.317 105.755 C 193.317 104.153,194.233 104.134,201.309 105.592 C 202.029 105.741,202.856 106.175,203.147 106.558 C 203.438 106.941,204.653 107.599,205.848 108.022 C 207.043 108.444,208.396 109.036,208.855 109.338 C 209.644 109.856,210.496 110.067,211.445 109.980 C 212.031 109.926,211.970 109.273,211.378 109.273 C 211.112 109.273,210.773 109.064,210.626 108.809 C 210.274 108.197,207.887 106.873,207.532 107.093 C 207.380 107.187,207.174 107.054,207.075 106.797 C 206.976 106.539,206.434 106.227,205.871 106.104 C 205.307 105.980,204.845 105.740,204.845 105.571 C 204.845 105.402,204.650 105.263,204.411 105.263 C 203.796 105.263,202.178 104.477,202.175 104.177 C 202.173 104.039,201.871 103.926,201.504 103.926 C 201.136 103.926,200.835 103.776,200.835 103.592 C 200.835 103.409,200.610 103.258,200.334 103.258 C 200.058 103.258,199.833 103.108,199.833 102.924 C 199.833 102.740,199.382 102.590,198.830 102.590 C 198.279 102.590,197.828 102.439,197.828 102.256 C 197.828 102.072,197.527 101.921,197.160 101.921 C 196.792 101.921,196.491 101.771,196.491 101.587 C 196.491 101.404,195.739 101.253,194.820 101.253 C 193.901 101.253,193.150 101.126,193.150 100.970 C 193.150 100.562,189.936 99.582,188.600 99.582 C 187.978 99.582,187.469 99.432,187.469 99.248 C 187.469 99.064,186.792 98.914,185.965 98.914 C 185.138 98.914,184.461 98.764,184.461 98.580 C 184.461 98.391,183.514 98.246,182.289 98.246 C 181.064 98.246,180.117 98.100,180.117 97.911 C 180.117 97.696,176.720 97.577,170.593 97.577 C 164.467 97.577,161.069 97.696,161.069 97.911 M276.566 99.182 C 276.462 99.349,275.595 99.580,274.639 99.693 C 273.682 99.806,272.746 100.053,272.557 100.242 C 272.368 100.430,271.793 100.585,271.278 100.585 C 270.764 100.585,270.343 100.735,270.343 100.919 C 270.343 101.103,269.591 101.253,268.672 101.253 C 267.753 101.253,267.001 101.404,267.001 101.587 C 267.001 101.771,266.700 101.921,266.332 101.921 C 265.965 101.921,265.664 102.072,265.664 102.256 C 265.664 102.439,265.204 102.590,264.642 102.590 C 264.046 102.590,263.706 102.729,263.826 102.924 C 263.945 103.117,263.632 103.258,263.084 103.258 C 262.519 103.258,261.941 103.528,261.654 103.926 C 261.389 104.294,260.810 104.595,260.366 104.595 C 259.923 104.595,259.312 104.881,259.009 105.231 C 258.706 105.581,257.830 106.036,257.063 106.242 C 256.297 106.449,255.448 106.839,255.177 107.110 C 254.906 107.381,254.448 107.602,254.159 107.602 C 253.870 107.602,253.633 107.715,253.631 107.853 C 253.628 108.153,252.010 108.939,251.395 108.939 C 251.156 108.939,250.961 109.066,250.961 109.222 C 250.961 109.749,249.716 110.944,249.167 110.944 C 248.867 110.944,248.622 111.094,248.622 111.278 C 248.622 111.462,248.389 111.612,248.105 111.612 C 247.821 111.612,247.224 111.977,246.779 112.422 C 246.334 112.867,245.664 113.328,245.291 113.447 C 244.738 113.622,244.676 113.782,244.958 114.308 C 245.409 115.151,246.079 115.124,247.309 114.215 C 248.657 113.218,251.195 112.593,252.256 112.997 C 252.710 113.169,253.281 113.234,253.525 113.140 C 254.201 112.881,254.053 111.947,253.336 111.947 C 252.845 111.947,252.293 111.354,252.298 110.833 C 252.303 110.343,256.034 110.768,256.314 111.290 C 256.574 111.776,256.554 111.894,256.232 111.775 C 255.022 111.332,254.984 111.791,254.964 127.306 C 254.951 137.007,255.064 142.541,255.276 142.672 C 255.486 142.802,255.636 148.342,255.684 157.738 C 255.747 170.163,255.838 172.657,256.237 172.954 C 256.594 173.221,256.754 174.440,256.871 177.800 C 256.957 180.269,257.111 182.515,257.213 182.790 C 257.315 183.066,257.366 185.510,257.327 188.221 C 257.278 191.574,257.371 193.150,257.617 193.150 C 257.842 193.150,257.978 192.264,257.978 190.810 C 257.978 189.474,258.121 188.471,258.312 188.471 C 258.496 188.471,258.647 187.719,258.647 186.800 C 258.647 185.881,258.797 185.129,258.981 185.129 C 259.165 185.129,259.315 184.453,259.315 183.626 C 259.315 182.799,259.465 182.122,259.649 182.122 C 259.833 182.122,259.983 181.520,259.983 180.785 C 259.983 180.050,260.134 179.449,260.317 179.449 C 260.501 179.449,260.652 178.847,260.652 178.112 C 260.652 177.377,260.802 176.775,260.986 176.775 C 261.170 176.775,261.320 176.550,261.320 176.274 C 261.320 175.998,261.470 175.773,261.654 175.773 C 261.838 175.773,261.988 175.322,261.988 174.770 C 261.988 174.219,262.139 173.768,262.322 173.768 C 262.506 173.768,262.657 173.317,262.657 172.765 C 262.657 172.214,262.794 171.763,262.961 171.763 C 263.129 171.763,263.374 171.124,263.506 170.344 C 263.638 169.564,264.027 168.682,264.371 168.384 C 264.715 168.085,264.996 167.446,264.996 166.962 C 264.996 166.478,265.146 166.082,265.330 166.082 C 265.514 166.082,265.664 165.781,265.664 165.414 C 265.664 165.046,265.815 164.745,265.998 164.745 C 266.182 164.745,266.332 164.589,266.332 164.397 C 266.332 164.206,266.633 163.726,267.001 163.332 C 267.368 162.937,267.669 162.417,267.669 162.176 C 267.669 161.935,267.820 161.738,268.003 161.738 C 268.187 161.738,268.338 161.437,268.338 161.069 C 268.338 160.702,268.471 160.401,268.634 160.401 C 268.796 160.401,269.192 159.849,269.512 159.174 C 269.833 158.498,270.526 157.583,271.054 157.139 C 271.582 156.695,272.013 156.182,272.013 156.000 C 272.013 155.817,272.765 154.912,273.684 153.988 C 274.603 153.064,275.355 152.149,275.355 151.955 C 275.355 151.760,275.440 151.686,275.544 151.790 C 275.773 152.019,280.368 147.526,280.368 147.074 C 280.368 146.899,280.180 146.693,279.950 146.616 C 279.620 146.505,279.551 141.755,279.624 124.030 C 279.704 104.327,279.652 101.463,279.199 100.587 C 278.915 100.038,278.724 99.475,278.774 99.335 C 278.905 98.966,276.790 98.819,276.566 99.182 M213.432 111.158 C 213.165 111.425,213.466 111.947,213.888 111.947 C 214.061 111.947,214.202 111.721,214.202 111.445 C 214.202 110.929,213.808 110.781,213.432 111.158 M217.126 113.514 C 216.300 113.729,216.400 114.114,217.402 114.570 C 218.385 115.019,219.286 114.706,218.415 114.219 C 218.112 114.049,217.951 113.769,218.058 113.597 C 218.259 113.271,218.108 113.257,217.126 113.514 M242.607 115.808 C 242.607 116.083,242.231 116.450,241.771 116.625 C 241.312 116.800,240.936 117.097,240.936 117.285 C 240.936 117.823,241.937 117.685,242.155 117.116 C 242.279 116.794,242.583 116.679,242.980 116.805 C 243.762 117.053,243.885 115.800,243.108 115.502 C 242.800 115.383,242.607 115.502,242.607 115.808 M252.214 118.526 C 251.244 118.780,251.554 119.497,252.799 119.879 C 253.949 120.232,253.968 120.223,253.968 119.267 C 253.968 118.280,253.658 118.149,252.214 118.526 M252.047 122.186 C 251.740 122.315,251.629 123.633,251.629 127.137 L 251.629 131.913 252.694 132.126 C 254.263 132.440,254.330 132.215,254.228 126.958 L 254.135 122.139 253.300 122.074 C 252.840 122.039,252.277 122.089,252.047 122.186 M192.979 142.684 C 193.335 143.261,192.771 145.363,192.260 145.363 C 191.720 145.363,190.681 143.170,190.987 142.675 C 191.245 142.256,192.719 142.263,192.979 142.684 M284.822 142.885 C 284.712 143.170,284.802 143.581,285.021 143.799 C 285.329 144.104,285.371 144.067,285.208 143.638 C 285.065 143.263,285.195 143.043,285.606 142.960 C 286.187 142.843,286.187 142.826,285.618 142.602 C 285.225 142.447,284.953 142.544,284.822 142.885 M221.220 153.216 C 221.220 153.492,221.069 153.718,220.886 153.718 C 220.702 153.718,220.551 154.018,220.551 154.386 C 220.551 154.754,220.691 155.054,220.861 155.054 C 221.031 155.054,221.239 155.317,221.324 155.639 C 221.408 155.961,221.494 155.434,221.515 154.470 C 221.536 153.505,221.479 152.715,221.387 152.715 C 221.295 152.715,221.220 152.941,221.220 153.216 M257.310 205.848 C 257.310 207.185,257.453 208.187,257.644 208.187 C 257.835 208.187,257.978 207.185,257.978 205.848 C 257.978 204.511,257.835 203.509,257.644 203.509 C 257.453 203.509,257.310 204.511,257.310 205.848 M257.513 209.384 C 257.401 209.675,257.309 212.720,257.307 216.151 C 257.304 223.251,257.076 225.898,256.469 225.898 C 255.817 225.898,255.418 228.214,255.719 230.242 C 255.870 231.253,256.044 232.525,256.106 233.068 C 256.168 233.611,256.390 234.113,256.598 234.182 C 257.347 234.432,257.098 243.499,256.336 243.698 C 255.712 243.862,255.701 244.363,255.887 264.122 C 256.029 279.231,255.980 284.378,255.695 284.378 C 255.414 284.378,255.288 280.302,255.221 269.089 L 255.131 253.801 255.051 269.089 C 254.981 282.421,254.907 284.378,254.470 284.378 C 253.956 284.378,253.709 286.370,254.219 286.395 C 257.808 286.576,258.584 287.852,255.593 288.655 C 254.414 288.972,254.369 288.950,254.082 287.933 C 253.895 287.268,253.414 286.696,252.769 286.371 C 252.209 286.090,251.328 285.526,250.810 285.118 C 250.292 284.711,249.517 284.378,249.088 284.378 C 248.524 284.378,248.363 284.236,248.505 283.864 C 248.748 283.232,247.724 282.038,246.940 282.038 C 246.623 282.038,246.169 281.803,245.930 281.516 C 245.660 281.190,245.211 281.065,244.740 281.183 C 244.324 281.287,243.885 281.211,243.763 281.014 C 243.641 280.817,243.331 280.737,243.074 280.836 C 242.817 280.934,242.607 280.869,242.607 280.691 C 242.607 280.513,242.343 280.379,242.022 280.394 C 241.672 280.410,241.605 280.488,241.855 280.589 C 242.084 280.682,242.272 280.902,242.272 281.079 C 242.272 281.523,243.829 283.041,244.284 283.041 C 244.488 283.041,245.034 283.492,245.498 284.043 C 245.962 284.595,246.490 285.046,246.670 285.046 C 246.851 285.046,247.208 285.234,247.464 285.464 C 248.572 286.457,248.948 286.717,249.280 286.717 C 249.789 286.717,251.032 287.457,251.665 288.137 C 251.964 288.459,252.310 288.722,252.434 288.722 C 252.558 288.722,252.982 289.023,253.377 289.390 C 253.771 289.758,254.291 290.058,254.533 290.058 C 254.774 290.058,254.971 290.209,254.971 290.393 C 254.971 290.576,255.272 290.727,255.639 290.727 C 256.007 290.727,256.307 290.877,256.307 291.061 C 256.307 291.245,256.608 291.395,256.976 291.395 C 257.343 291.395,257.644 291.539,257.644 291.714 C 257.644 291.890,258.170 292.132,258.814 292.253 C 259.457 292.373,259.983 292.606,259.983 292.769 C 259.983 292.932,260.434 293.066,260.986 293.066 C 261.537 293.066,261.988 293.216,261.988 293.400 C 261.988 293.584,262.253 293.734,262.576 293.734 C 262.900 293.734,263.352 294.035,263.582 294.403 C 263.870 294.864,264.361 295.071,265.166 295.071 C 265.807 295.071,266.332 295.221,266.332 295.405 C 266.332 295.589,266.784 295.739,267.335 295.739 C 267.886 295.739,268.338 295.890,268.338 296.074 C 268.338 296.257,268.638 296.408,269.006 296.408 C 269.373 296.408,269.674 296.558,269.674 296.742 C 269.674 296.926,270.201 297.076,270.844 297.076 C 271.487 297.076,272.013 297.226,272.013 297.410 C 272.013 297.594,272.615 297.744,273.350 297.744 C 274.085 297.744,274.687 297.906,274.687 298.104 C 274.687 298.301,275.100 298.420,275.606 298.367 C 276.111 298.314,276.736 298.401,276.994 298.560 C 277.315 298.758,277.388 298.728,277.225 298.464 C 277.068 298.211,277.280 298.079,277.842 298.079 C 278.312 298.079,278.697 298.229,278.697 298.413 C 278.697 298.596,278.922 298.747,279.198 298.747 C 279.474 298.747,279.699 298.596,279.699 298.413 C 279.699 298.229,279.544 298.079,279.353 298.079 C 279.132 298.079,279.152 297.809,279.410 297.327 C 279.631 296.913,279.787 296.537,279.756 296.491 C 279.725 296.445,279.702 296.145,279.704 295.823 C 279.708 295.375,279.776 295.342,279.992 295.684 C 280.222 296.047,280.310 296.038,280.465 295.633 C 280.581 295.332,280.424 295.076,280.065 294.982 C 279.189 294.753,278.929 283.458,279.428 267.280 L 279.827 254.360 280.807 254.164 C 281.347 254.057,282.446 253.968,283.250 253.968 C 284.054 253.968,284.712 253.818,284.712 253.634 C 284.712 253.450,284.461 253.300,284.155 253.300 C 283.849 253.300,283.691 253.207,283.805 253.093 C 284.096 252.802,283.191 251.963,282.586 251.963 C 282.310 251.963,281.989 251.666,281.873 251.302 C 281.758 250.938,281.485 250.675,281.266 250.717 C 281.048 250.759,280.906 250.606,280.952 250.376 C 280.998 250.146,280.735 249.958,280.368 249.958 C 279.915 249.958,279.699 249.735,279.699 249.267 C 279.699 248.729,279.552 248.623,279.031 248.789 C 278.557 248.939,278.363 248.849,278.363 248.477 C 278.363 248.189,278.228 247.953,278.064 247.953 C 277.899 247.953,277.282 247.502,276.692 246.951 C 276.101 246.399,275.743 245.948,275.895 245.948 C 276.048 245.948,275.838 245.714,275.429 245.428 C 275.021 245.142,274.687 244.616,274.687 244.258 C 274.687 243.832,274.457 243.609,274.018 243.609 C 273.623 243.609,273.350 243.386,273.350 243.063 C 273.350 242.535,272.857 242.011,270.930 240.489 C 270.427 240.092,270.013 239.521,270.011 239.222 C 270.010 238.923,269.783 238.491,269.507 238.262 C 269.231 238.034,269.006 237.564,269.006 237.219 C 269.006 236.874,268.855 236.591,268.672 236.591 C 268.488 236.591,268.338 236.367,268.338 236.093 C 268.338 235.819,268.037 235.407,267.669 235.177 C 267.302 234.948,267.001 234.495,267.001 234.172 C 267.001 233.849,266.850 233.584,266.667 233.584 C 266.483 233.584,266.332 233.283,266.332 232.916 C 266.332 232.548,266.182 232.247,265.998 232.247 C 265.815 232.247,265.664 231.947,265.664 231.579 C 265.664 231.211,265.514 230.911,265.330 230.911 C 265.146 230.911,264.996 230.610,264.996 230.242 C 264.996 229.875,264.881 229.574,264.740 229.574 C 264.430 229.574,263.325 227.093,263.325 226.397 C 263.325 226.123,263.175 225.898,262.991 225.898 C 262.807 225.898,262.657 225.531,262.657 225.082 C 262.657 224.634,262.506 224.174,262.322 224.060 C 262.139 223.947,261.988 223.487,261.988 223.038 C 261.988 222.589,261.838 222.222,261.654 222.222 C 261.470 222.222,261.320 221.771,261.320 221.220 C 261.320 220.668,261.170 220.217,260.986 220.217 C 260.802 220.217,260.652 219.766,260.652 219.215 C 260.652 218.663,260.501 218.212,260.317 218.212 C 260.134 218.212,259.983 217.695,259.983 217.062 C 259.983 216.430,259.833 215.820,259.649 215.706 C 259.465 215.592,259.315 214.982,259.315 214.350 C 259.315 213.717,259.165 213.200,258.981 213.200 C 258.792 213.200,258.647 212.253,258.647 211.028 C 258.647 208.882,258.042 208.005,257.513 209.384 M253.383 264.549 C 253.078 264.672,252.966 265.938,252.966 269.258 C 252.966 273.053,252.873 273.901,252.401 274.423 C 251.865 275.015,251.891 275.103,252.902 276.114 L 253.968 277.180 253.968 270.754 C 253.968 267.219,253.931 264.339,253.885 264.354 C 253.839 264.368,253.613 264.456,253.383 264.549 M232.824 271.994 C 232.636 272.713,232.854 273.094,233.296 272.820 C 233.675 272.586,233.669 271.345,233.289 271.345 C 233.126 271.345,232.917 271.637,232.824 271.994 M213.454 285.538 C 213.241 286.654,213.660 286.889,214.532 286.142 C 214.914 285.815,215.372 285.547,215.550 285.547 C 216.497 285.547,215.857 284.864,214.829 284.778 C 213.759 284.688,213.599 284.776,213.454 285.538  M -25 0 L -5 0 L -5 20 L -25 20 Z M 405 0 L 425 0 L 425 20 L 405 20 Z" stroke="none" fill="#93a7f2" fill-rule="evenodd" transform="translate(490,0)"></path><path id="path2" d="M194.319 104.582 C 192.279 104.961,193.087 106.997,195.572 107.741 C 196.465 108.008,196.320 109.672,195.322 110.610 C 194.422 111.455,193.981 121.286,194.820 121.805 C 195.031 121.935,195.155 125.756,195.155 132.164 C 195.155 138.572,195.031 142.393,194.820 142.523 C 194.406 142.779,194.366 151.933,194.779 152.188 C 194.939 152.287,195.071 153.329,195.071 154.503 C 195.071 156.256,195.228 156.868,195.948 157.929 C 196.431 158.639,196.830 159.673,196.836 160.228 C 196.850 161.527,197.454 162.302,198.684 162.597 C 200.094 162.935,200.134 162.982,199.862 163.995 C 199.629 164.861,200.043 167.390,200.477 167.753 C 201.282 168.425,202.970 172.999,203.313 175.439 C 203.728 178.386,205.449 183.670,205.491 182.122 C 205.510 181.400,206.859 175.529,208.716 168.087 C 209.014 166.892,209.542 164.681,209.889 163.174 C 210.647 159.886,212.029 156.725,212.708 156.725 C 213.018 156.725,213.206 156.385,213.216 155.806 C 213.225 155.301,213.518 154.361,213.867 153.718 C 214.739 152.112,215.078 151.388,215.538 150.151 C 215.755 149.569,216.450 148.290,217.082 147.311 C 217.714 146.332,218.404 144.929,218.616 144.194 C 218.827 143.459,219.333 142.556,219.740 142.189 C 220.148 141.821,220.569 141.132,220.676 140.657 C 220.783 140.182,221.475 139.107,222.215 138.267 C 222.954 137.427,223.559 136.583,223.559 136.391 C 223.559 136.200,223.963 135.847,224.458 135.607 C 224.952 135.367,225.667 134.538,226.045 133.765 C 226.424 132.991,226.982 132.271,227.285 132.165 C 227.588 132.059,227.925 131.620,228.034 131.188 C 228.142 130.756,228.891 129.703,229.699 128.848 L 231.167 127.294 232.488 128.602 C 233.215 129.321,234.129 130.081,234.519 130.290 C 235.346 130.732,235.837 131.777,237.056 135.692 C 237.546 137.265,238.318 139.099,238.773 139.768 C 239.227 140.437,239.599 141.078,239.599 141.192 C 239.599 141.307,239.806 141.608,240.059 141.861 C 240.620 142.422,241.192 151.924,240.695 152.422 C 240.502 152.614,240.441 162.477,240.537 177.991 C 240.664 198.597,240.612 203.296,240.255 203.517 C 239.894 203.739,239.879 207.824,240.167 226.455 C 240.366 239.357,240.391 249.171,240.225 249.234 C 239.777 249.405,239.879 253.556,240.350 254.310 C 240.777 254.994,239.856 257.133,238.218 259.263 C 237.886 259.694,237.438 260.948,237.221 262.049 C 237.004 263.151,236.624 264.130,236.375 264.226 C 236.127 264.321,235.923 264.626,235.923 264.903 C 235.923 265.180,235.413 265.878,234.789 266.455 C 234.166 267.031,233.601 267.803,233.533 268.170 C 233.235 269.802,230.153 268.758,227.961 266.283 C 227.470 265.728,226.654 264.830,226.149 264.288 C 225.643 263.746,225.230 263.087,225.230 262.824 C 225.230 262.561,224.779 261.884,224.227 261.320 C 223.676 260.756,223.225 260.074,223.225 259.805 C 223.225 259.535,223.001 259.315,222.728 259.315 C 222.151 259.315,220.750 257.315,220.178 255.672 C 219.961 255.048,219.570 254.296,219.310 254.002 C 218.276 252.833,217.156 251.013,216.047 248.700 C 215.406 247.364,214.573 245.852,214.194 245.341 C 213.720 244.700,213.444 243.671,213.307 242.037 C 213.133 239.955,213.010 239.620,212.308 239.300 C 211.448 238.908,210.192 236.403,210.192 235.080 C 210.192 234.646,210.042 234.199,209.858 234.085 C 209.674 233.972,209.521 233.549,209.517 233.147 C 209.514 232.744,209.062 231.143,208.515 229.590 C 207.967 228.037,207.519 226.135,207.519 225.365 C 207.519 224.493,207.347 223.899,207.064 223.790 C 206.806 223.691,206.510 222.847,206.379 221.833 C 205.872 217.928,205.124 216.645,204.461 218.546 C 204.269 219.098,203.983 219.549,203.825 219.549 C 203.668 219.549,203.445 220.113,203.331 220.802 C 203.217 221.491,202.834 222.760,202.480 223.621 C 202.127 224.482,201.838 225.568,201.838 226.034 C 201.838 226.501,201.476 227.676,201.034 228.646 C 200.592 229.616,200.004 231.110,199.728 231.966 C 199.452 232.822,198.906 233.843,198.515 234.234 C 198.124 234.625,197.883 235.074,197.981 235.232 C 198.078 235.390,197.936 235.604,197.665 235.708 C 197.393 235.813,197.254 236.114,197.355 236.378 C 197.456 236.641,197.248 237.136,196.893 237.476 C 195.792 238.532,195.452 239.547,195.524 241.560 C 195.609 243.896,195.413 244.277,194.132 244.277 L 193.150 244.277 193.150 249.123 C 193.150 253.924,193.156 253.968,193.901 253.973 C 196.225 253.987,196.184 253.886,196.082 259.273 L 195.990 264.160 194.570 264.263 L 193.150 264.366 193.150 275.374 L 193.150 286.383 195.656 286.383 C 198.999 286.383,198.966 288.290,195.613 288.919 C 194.993 289.035,194.486 289.264,194.486 289.427 C 194.486 289.591,194.277 289.724,194.021 289.724 C 192.987 289.724,193.054 291.559,194.099 291.867 C 195.519 292.285,197.516 292.392,198.061 292.080 C 198.973 291.557,202.808 290.781,203.538 290.972 C 203.891 291.064,204.368 290.988,204.597 290.802 C 205.386 290.160,207.540 289.056,208.002 289.056 C 208.257 289.056,208.516 288.938,208.577 288.793 C 209.106 287.545,211.642 286.728,212.170 287.636 C 212.359 287.960,212.516 288.035,212.521 287.803 C 212.527 287.573,212.766 287.385,213.054 287.385 C 213.351 287.385,213.550 287.133,213.516 286.800 C 213.308 284.755,213.430 284.606,215.147 284.810 C 216.493 284.969,216.838 284.894,217.226 284.355 C 217.482 284.000,217.959 283.709,218.286 283.709 C 218.613 283.709,218.881 283.582,218.881 283.426 C 218.881 282.964,220.095 281.704,220.540 281.704 C 220.766 281.704,221.373 281.253,221.888 280.702 C 222.403 280.150,223.065 279.699,223.359 279.699 C 223.653 279.699,223.893 279.538,223.893 279.341 C 223.893 278.879,224.743 278.028,225.206 278.028 C 225.403 278.028,225.564 277.728,225.564 277.360 C 225.564 276.915,225.787 276.692,226.232 276.692 C 226.617 276.692,226.901 276.469,226.901 276.167 C 226.901 275.491,227.705 274.687,228.380 274.687 C 228.683 274.687,228.906 274.403,228.906 274.018 C 228.906 273.651,229.049 273.350,229.225 273.350 C 229.400 273.350,229.944 272.949,230.434 272.459 C 231.179 271.715,231.427 271.633,231.949 271.958 C 232.764 272.467,232.916 272.450,232.916 271.846 C 232.916 271.571,233.085 271.345,233.292 271.345 C 233.531 271.345,233.595 271.709,233.467 272.348 C 233.354 272.913,233.409 273.350,233.592 273.350 C 233.772 273.350,233.918 273.651,233.918 274.018 C 233.918 274.558,234.141 274.687,235.077 274.687 C 235.958 274.687,236.191 274.804,236.049 275.176 C 235.832 275.740,239.687 279.699,240.453 279.699 C 240.719 279.699,240.936 279.850,240.936 280.033 C 240.936 280.217,241.312 280.368,241.771 280.368 C 242.231 280.368,242.607 280.513,242.607 280.691 C 242.607 280.869,242.817 280.934,243.074 280.836 C 243.331 280.737,243.641 280.817,243.763 281.014 C 243.885 281.211,244.324 281.287,244.740 281.183 C 245.211 281.065,245.660 281.190,245.930 281.516 C 246.169 281.803,246.623 282.038,246.940 282.038 C 247.724 282.038,248.748 283.232,248.505 283.864 C 248.363 284.236,248.524 284.378,249.088 284.378 C 249.517 284.378,250.292 284.711,250.810 285.118 C 251.328 285.526,252.209 286.090,252.769 286.371 C 253.414 286.696,253.895 287.268,254.082 287.933 C 254.369 288.950,254.414 288.972,255.593 288.655 C 258.584 287.852,257.808 286.576,254.219 286.395 C 253.712 286.370,253.956 284.378,254.466 284.378 C 254.899 284.378,254.976 282.370,255.054 269.089 L 255.145 253.801 255.225 269.089 C 255.284 280.386,255.406 284.378,255.691 284.378 C 255.981 284.378,256.030 279.333,255.887 264.122 C 255.701 244.363,255.712 243.862,256.336 243.698 C 257.098 243.499,257.347 234.432,256.598 234.182 C 256.390 234.113,256.168 233.611,256.106 233.068 C 256.044 232.525,255.870 231.253,255.719 230.242 C 255.418 228.214,255.817 225.898,256.469 225.898 C 257.077 225.898,257.304 223.249,257.307 216.102 C 257.309 212.029,257.445 209.563,257.692 209.100 C 257.979 208.564,257.979 208.354,257.692 208.259 C 257.211 208.099,257.165 203.509,257.644 203.509 C 257.853 203.509,257.978 201.559,257.978 198.329 C 257.978 194.840,257.860 193.150,257.617 193.150 C 257.371 193.150,257.278 191.574,257.327 188.221 C 257.366 185.510,257.315 183.066,257.213 182.790 C 257.111 182.515,256.957 180.269,256.871 177.800 C 256.754 174.440,256.594 173.221,256.237 172.954 C 255.838 172.657,255.747 170.163,255.684 157.738 C 255.636 148.342,255.486 142.802,255.276 142.672 C 255.064 142.541,254.951 137.007,254.964 127.306 C 254.984 111.791,255.022 111.332,256.232 111.775 C 256.554 111.894,256.574 111.776,256.314 111.290 C 255.887 110.492,252.157 110.427,252.461 111.222 C 252.555 111.467,252.632 111.730,252.632 111.807 C 252.632 111.884,252.932 111.947,253.300 111.947 C 254.048 111.947,254.222 112.873,253.525 113.140 C 253.281 113.234,252.710 113.169,252.256 112.997 C 251.195 112.593,248.657 113.218,247.309 114.215 C 246.116 115.097,245.424 115.152,245.002 114.398 C 244.725 113.903,244.593 113.940,243.801 114.732 C 243.311 115.222,243.068 115.622,243.260 115.622 C 243.452 115.622,243.609 115.933,243.609 116.313 C 243.609 116.838,243.457 116.956,242.980 116.805 C 242.573 116.675,242.278 116.797,242.142 117.152 C 241.989 117.550,241.698 117.640,241.072 117.482 C 240.514 117.342,240.287 117.389,240.426 117.614 C 240.544 117.805,240.471 117.962,240.263 117.962 C 239.754 117.962,238.910 118.832,239.169 119.091 C 239.283 119.205,239.162 119.298,238.900 119.298 C 238.638 119.298,237.973 119.821,237.424 120.461 C 236.874 121.100,236.161 121.626,235.840 121.630 C 235.480 121.635,235.255 121.895,235.255 122.306 C 235.255 122.691,235.032 122.974,234.730 122.974 C 234.108 122.974,233.250 123.761,233.250 124.331 C 233.250 124.678,232.023 125.982,231.696 125.982 C 231.633 125.982,229.782 124.177,227.583 121.972 C 225.383 119.766,223.418 117.962,223.216 117.962 C 223.013 117.962,222.099 117.194,221.185 116.255 C 219.942 114.979,219.349 114.594,218.834 114.729 C 218.094 114.922,216.541 114.360,216.541 113.898 C 216.541 113.744,216.767 113.617,217.043 113.617 C 217.773 113.617,217.656 113.030,216.876 112.782 C 216.508 112.665,216.207 112.341,216.207 112.062 C 216.207 111.671,215.884 111.580,214.787 111.667 C 213.580 111.763,213.382 111.691,213.467 111.187 C 213.619 110.282,212.675 109.514,211.780 109.816 C 210.780 110.153,209.870 110.005,208.855 109.338 C 208.396 109.036,207.043 108.444,205.848 108.022 C 204.653 107.599,203.438 106.941,203.147 106.558 C 202.856 106.175,202.029 105.741,201.309 105.592 C 196.536 104.609,195.209 104.417,194.319 104.582 M253.968 119.267 C 253.968 120.223,253.949 120.232,252.799 119.879 C 251.017 119.332,251.344 118.470,253.383 118.335 C 253.815 118.306,253.968 118.550,253.968 119.267 M254.228 126.958 C 254.330 132.215,254.263 132.440,252.694 132.126 L 251.629 131.913 251.629 127.137 C 251.629 122.059,251.666 121.948,253.300 122.074 L 254.135 122.139 254.228 126.958 M190.987 142.675 C 190.681 143.170,191.720 145.363,192.260 145.363 C 192.771 145.363,193.335 143.261,192.979 142.684 C 192.719 142.263,191.245 142.256,190.987 142.675 M200.913 223.559 C 200.913 224.202,200.982 224.465,201.066 224.144 C 201.150 223.822,201.150 223.296,201.066 222.974 C 200.982 222.652,200.913 222.916,200.913 223.559 M253.968 270.754 L 253.968 277.180 252.902 276.114 C 251.891 275.103,251.865 275.015,252.401 274.423 C 252.873 273.901,252.966 273.053,252.966 269.258 C 252.966 264.952,253.027 264.625,253.885 264.354 C 253.931 264.339,253.968 267.219,253.968 270.754  M -25 0 L -5 0 L -5 20 L -25 20 Z M 405 0 L 425 0 L 425 20 L 405 20 Z" stroke="none" fill="#80c7f6" fill-rule="evenodd" transform="translate(950,0)"></path><path id="path3" d="M90.123 66.285 C 90.004 66.596,89.704 66.741,89.411 66.629 C 89.133 66.522,88.666 66.675,88.372 66.968 C 88.079 67.262,87.935 67.502,88.053 67.502 C 88.172 67.502,88.043 67.728,87.767 68.003 C 87.491 68.279,87.029 68.505,86.741 68.505 C 86.452 68.505,86.216 68.641,86.216 68.807 C 86.216 68.974,85.915 69.032,85.547 68.936 C 85.095 68.817,84.879 68.925,84.879 69.270 C 84.879 69.614,84.663 69.722,84.211 69.604 C 83.837 69.506,83.542 69.594,83.542 69.802 C 83.542 70.008,83.241 70.175,82.874 70.175 C 82.506 70.175,82.206 70.326,82.206 70.510 C 82.206 70.693,81.905 70.844,81.537 70.844 C 81.092 70.844,80.869 71.067,80.869 71.512 C 80.869 72.024,80.646 72.180,79.918 72.180 C 78.971 72.180,77.861 73.051,77.861 73.794 C 77.861 74.009,77.486 74.185,77.028 74.185 C 76.076 74.185,73.517 75.217,73.517 75.601 C 73.517 75.741,73.292 75.856,73.016 75.856 C 72.161 75.856,69.173 79.086,69.173 80.011 C 69.173 80.271,89.143 80.174,90.393 79.909 C 91.324 79.711,91.403 79.578,91.500 78.033 C 91.609 76.314,91.922 75.878,93.066 75.850 C 95.282 75.796,95.707 73.826,93.736 72.745 C 93.001 72.343,92.201 71.825,91.957 71.596 C 91.714 71.366,91.212 71.178,90.842 71.178 C 90.047 71.178,90.183 70.394,91.005 70.234 C 91.335 70.171,91.562 70.341,91.562 70.652 C 91.562 70.941,91.713 71.178,91.896 71.178 C 92.080 71.178,92.231 70.952,92.231 70.677 C 92.231 70.401,92.343 70.164,92.481 70.150 C 93.581 70.038,94.127 69.743,94.995 68.793 C 95.706 68.014,95.865 67.655,95.544 67.548 C 95.297 67.466,94.863 67.114,94.581 66.766 C 93.863 65.881,90.420 65.510,90.123 66.285 M76.448 76.462 C 76.522 76.684,76.273 76.859,75.884 76.859 C 75.190 76.859,74.982 76.508,75.418 76.072 C 75.727 75.763,76.285 75.974,76.448 76.462 M67.502 97.498 C 67.059 97.996,66.991 109.837,66.918 199.073 L 66.836 300.084 79.199 300.084 L 91.562 300.084 91.562 297.567 C 91.562 295.845,91.694 295.009,91.980 294.921 C 92.210 294.851,92.811 294.702,93.317 294.591 L 94.236 294.390 94.236 289.566 L 94.236 284.742 93.066 284.523 L 91.896 284.303 91.896 203.296 L 91.896 122.289 92.732 121.972 L 93.567 121.654 93.567 111.621 L 93.567 101.587 92.648 101.553 C 92.143 101.535,91.224 101.548,90.606 101.582 C 89.870 101.623,89.560 101.520,89.706 101.282 C 89.830 101.082,90.307 100.919,90.766 100.919 C 91.541 100.919,91.593 100.818,91.498 99.499 L 91.395 98.079 88.053 97.827 C 86.216 97.689,84.451 97.425,84.132 97.242 C 83.028 96.609,68.088 96.839,67.502 97.498 M283.375 98.509 C 283.375 98.823,282.427 98.974,280.313 98.997 C 278.648 99.015,278.501 99.304,279.350 100.890 C 279.607 101.370,279.688 108.235,279.624 123.981 C 279.544 143.604,279.594 146.427,280.033 146.701 C 280.354 146.900,280.577 146.889,280.653 146.669 C 280.872 146.030,282.378 144.589,282.597 144.808 C 282.716 144.927,283.031 144.715,283.296 144.336 C 283.562 143.958,283.979 143.725,284.224 143.819 C 284.498 143.924,284.710 143.707,284.775 143.256 C 284.832 142.853,285.067 142.504,285.297 142.481 C 285.526 142.458,286.031 142.421,286.418 142.398 C 286.871 142.371,287.059 142.191,286.945 141.894 C 286.741 141.361,290.295 139.920,291.813 139.920 C 292.318 139.921,292.732 139.792,292.732 139.635 C 292.732 139.477,293.101 139.348,293.552 139.348 C 294.410 139.348,295.055 137.651,294.624 136.528 C 294.510 136.232,294.692 135.960,295.088 135.834 C 295.761 135.621,295.996 135.004,295.405 135.004 C 295.221 135.004,295.071 135.155,295.071 135.338 C 295.071 135.522,294.459 135.673,293.711 135.673 C 292.015 135.673,291.814 134.255,293.484 134.063 C 294.167 133.984,294.407 133.770,294.418 133.228 C 294.427 132.826,294.465 130.130,294.502 127.235 L 294.570 121.972 293.567 121.932 C 293.016 121.910,292.377 121.917,292.147 121.947 C 291.821 121.989,291.729 119.799,291.729 111.961 L 291.729 101.921 293.046 101.921 C 293.771 101.921,294.456 101.771,294.570 101.587 C 294.683 101.404,295.143 101.253,295.592 101.253 C 296.041 101.253,296.408 101.103,296.408 100.919 C 296.408 100.735,296.041 100.585,295.592 100.585 C 294.706 100.585,294.108 99.972,294.659 99.628 C 294.846 99.511,294.001 99.384,292.780 99.347 C 291.559 99.309,289.939 99.107,289.181 98.897 C 288.423 98.688,286.895 98.568,285.787 98.632 C 284.678 98.695,283.841 98.634,283.927 98.496 C 284.013 98.358,283.924 98.246,283.729 98.246 C 283.534 98.246,283.375 98.364,283.375 98.509 M70.666 99.916 C 70.815 99.916,71.111 99.679,71.324 99.388 C 71.636 98.961,71.931 98.923,72.864 99.191 C 73.848 99.473,73.895 99.527,73.183 99.557 C 71.627 99.623,71.267 100.165,72.536 100.529 L 73.684 100.859 72.431 100.889 C 70.602 100.933,70.899 101.475,72.856 101.664 C 73.779 101.752,74.606 101.896,74.693 101.984 C 74.780 102.071,74.853 145.363,74.855 198.189 L 74.858 294.236 75.537 294.748 C 76.214 295.258,76.213 295.261,75.455 295.318 C 74.644 295.379,72.191 296.455,72.184 296.752 C 72.182 296.850,72.663 297.112,73.253 297.334 C 74.781 297.911,74.106 298.306,71.265 298.495 C 69.365 298.622,68.756 298.548,68.425 298.149 C 67.939 297.565,67.630 124.654,68.085 108.509 C 68.352 99.056,68.516 98.216,69.860 99.432 C 70.154 99.699,70.517 99.916,70.666 99.916 M144.501 101.705 C 144.395 101.981,144.009 102.096,143.509 102.000 C 143.035 101.910,142.690 102.001,142.690 102.217 C 142.690 102.422,142.389 102.590,142.022 102.590 C 141.654 102.590,141.353 102.740,141.353 102.924 C 141.353 103.108,140.902 103.258,140.351 103.258 C 139.799 103.258,139.348 103.409,139.348 103.592 C 139.348 103.776,139.048 103.926,138.680 103.926 C 138.312 103.926,138.012 104.049,138.012 104.198 C 138.012 104.348,137.485 104.677,136.842 104.929 C 136.199 105.181,135.673 105.510,135.673 105.660 C 135.673 105.809,135.372 105.931,135.004 105.931 C 134.637 105.931,134.336 106.057,134.336 106.210 C 134.336 106.363,134.148 106.489,133.918 106.489 C 133.229 106.489,130.866 107.692,130.287 108.337 C 129.989 108.668,129.534 108.939,129.274 108.939 C 129.015 108.939,128.586 109.240,128.321 109.607 C 128.056 109.975,127.605 110.276,127.318 110.276 C 127.032 110.276,126.581 110.576,126.316 110.944 C 126.051 111.312,125.626 111.612,125.371 111.612 C 125.117 111.612,124.613 111.988,124.251 112.448 C 123.890 112.907,123.372 113.283,123.102 113.283 C 122.310 113.283,120.969 114.849,120.969 115.774 C 120.969 116.242,120.819 116.625,120.635 116.625 C 120.438 116.625,120.301 117.794,120.301 119.465 C 120.301 121.767,120.396 122.306,120.802 122.306 C 121.196 122.306,121.303 122.770,121.303 124.478 C 121.303 126.186,121.196 126.650,120.802 126.650 C 120.366 126.650,120.301 128.117,120.301 137.845 C 120.301 145.085,120.419 149.039,120.635 149.039 C 120.819 149.039,120.969 149.866,120.969 150.877 C 120.969 152.325,121.080 152.715,121.494 152.715 C 122.117 152.715,123.032 151.882,122.735 151.585 C 122.622 151.472,122.721 151.378,122.956 151.378 C 123.191 151.378,124.333 150.401,125.493 149.206 C 126.652 148.012,127.801 147.033,128.045 147.031 C 128.288 147.030,128.843 146.578,129.277 146.029 C 129.712 145.479,130.257 145.029,130.489 145.029 C 130.720 145.029,131.485 144.503,132.187 143.860 C 132.889 143.216,133.810 142.690,134.234 142.690 C 134.658 142.690,135.004 142.568,135.004 142.418 C 135.004 142.269,135.530 141.940,136.174 141.688 C 136.817 141.435,137.343 141.106,137.343 140.957 C 137.343 140.807,137.794 140.685,138.346 140.685 C 138.897 140.685,139.348 140.535,139.348 140.351 C 139.348 140.167,139.649 140.017,140.017 140.017 C 140.384 140.017,140.685 139.903,140.685 139.764 C 140.685 139.432,143.115 138.680,144.189 138.680 C 144.713 138.680,145.029 138.492,145.029 138.179 C 145.029 137.903,145.264 137.678,145.550 137.678 C 145.837 137.678,145.984 137.537,145.878 137.365 C 145.643 136.984,143.500 137.281,142.356 137.852 C 141.896 138.082,140.660 138.519,139.609 138.823 C 138.558 139.127,137.487 139.587,137.230 139.844 C 136.969 140.105,136.448 140.229,136.050 140.125 C 135.642 140.018,135.338 140.096,135.338 140.307 C 135.338 140.510,134.841 140.884,134.234 141.137 C 133.627 141.391,132.311 142.230,131.310 143.003 C 130.309 143.775,128.438 145.212,127.151 146.197 C 125.865 147.182,124.303 148.450,123.681 149.015 C 121.526 150.971,121.616 151.740,121.719 132.235 C 121.812 114.541,121.697 115.565,123.642 115.070 C 124.639 114.816,126.302 112.968,126.072 112.369 C 125.962 112.081,126.266 111.945,127.032 111.942 C 128.671 111.935,129.635 111.608,129.448 111.122 C 129.349 110.864,129.816 110.485,130.641 110.155 C 131.414 109.846,131.997 109.389,131.997 109.092 C 131.997 108.805,132.561 108.335,133.250 108.048 C 133.939 107.760,135.051 107.091,135.721 106.561 C 136.390 106.031,137.187 105.597,137.490 105.597 C 137.794 105.597,138.749 105.221,139.612 104.762 C 140.713 104.176,141.705 103.926,142.938 103.926 C 143.904 103.926,144.695 103.779,144.695 103.599 C 144.695 103.418,145.057 103.180,145.499 103.069 C 146.255 102.879,146.851 101.849,146.441 101.440 C 146.072 101.071,144.670 101.263,144.501 101.705 M205.764 193.009 C 205.627 193.147,205.520 196.131,205.527 199.638 C 205.538 204.920,205.611 205.872,205.952 205.180 C 206.406 204.255,206.226 192.544,205.764 193.009 M121.100 245.474 C 121.366 246.167,120.982 247.667,120.599 247.430 C 120.426 247.323,120.301 254.031,120.301 263.472 C 120.301 276.228,120.390 279.700,120.718 279.704 C 121.009 279.708,120.990 279.802,120.656 280.013 C 120.281 280.250,120.263 280.421,120.572 280.794 C 120.790 281.056,121.000 281.658,121.040 282.132 C 121.079 282.605,121.222 282.924,121.358 282.840 C 121.494 282.756,122.152 283.218,122.820 283.867 C 123.488 284.515,124.135 285.046,124.259 285.046 C 124.383 285.046,124.890 285.422,125.386 285.881 C 125.881 286.341,126.450 286.717,126.649 286.717 C 126.849 286.717,127.335 287.018,127.729 287.385 C 128.124 287.753,128.644 288.053,128.885 288.053 C 129.126 288.053,129.323 288.204,129.323 288.388 C 129.323 288.571,129.526 288.722,129.773 288.722 C 130.020 288.722,130.494 289.023,130.827 289.390 C 131.160 289.758,131.729 290.058,132.093 290.058 C 132.456 290.058,133.034 290.382,133.378 290.778 C 133.721 291.174,134.002 291.399,134.002 291.279 C 134.002 291.158,134.563 291.361,135.250 291.729 C 135.936 292.097,136.688 292.398,136.921 292.398 C 137.153 292.398,137.343 292.548,137.343 292.732 C 137.343 292.916,137.644 293.066,138.012 293.066 C 138.379 293.066,138.680 293.216,138.680 293.400 C 138.680 293.584,139.131 293.734,139.683 293.734 C 140.234 293.734,140.685 293.885,140.685 294.069 C 140.685 294.488,141.916 294.510,142.172 294.095 C 142.416 293.701,141.455 292.732,140.819 292.732 C 140.326 292.732,136.315 290.816,136.007 290.433 C 135.622 289.955,133.679 289.056,133.031 289.056 C 132.646 289.056,132.331 288.930,132.331 288.777 C 132.331 288.623,131.090 287.867,129.574 287.097 C 126.846 285.712,124.979 284.361,124.979 283.770 C 124.979 283.152,123.575 281.704,122.976 281.704 C 121.980 281.704,121.567 279.883,121.949 277.183 C 122.170 275.625,122.163 274.751,121.929 274.468 C 121.418 273.852,121.673 249.120,122.196 248.597 C 122.655 248.139,123.751 248.822,126.633 251.361 C 127.635 252.244,128.730 252.966,129.066 252.966 C 129.403 252.966,129.761 253.182,129.863 253.447 C 129.964 253.711,130.504 254.028,131.063 254.150 C 131.656 254.281,132.147 254.637,132.243 255.006 C 132.334 255.354,132.687 255.639,133.028 255.639 C 133.369 255.639,134.188 255.943,134.850 256.314 C 135.511 256.686,137.430 257.581,139.115 258.302 C 140.799 259.024,142.230 259.773,142.295 259.966 C 142.493 260.561,145.927 260.404,146.163 259.789 C 146.471 258.988,146.461 258.981,145.029 258.981 C 144.294 258.981,143.693 258.830,143.693 258.647 C 143.693 258.463,143.317 258.312,142.857 258.312 C 142.398 258.312,142.022 258.162,142.022 257.978 C 142.022 257.794,141.571 257.644,141.019 257.644 C 140.468 257.644,140.017 257.494,140.017 257.310 C 140.017 257.126,139.716 256.976,139.348 256.976 C 138.981 256.976,138.680 256.825,138.680 256.642 C 138.680 256.458,138.379 256.307,138.012 256.307 C 137.644 256.307,137.343 256.157,137.343 255.973 C 137.343 255.789,136.991 255.639,136.560 255.639 C 136.129 255.639,135.507 255.341,135.177 254.977 C 134.848 254.613,134.073 254.221,133.455 254.105 C 132.836 253.989,132.331 253.760,132.331 253.597 C 132.331 253.434,132.090 253.300,131.797 253.300 C 131.503 253.300,130.841 252.849,130.326 252.297 C 129.811 251.746,129.288 251.295,129.163 251.295 C 129.039 251.295,128.359 250.693,127.652 249.958 C 126.946 249.223,126.200 248.622,125.994 248.622 C 125.649 248.622,125.309 248.393,124.216 247.427 C 123.992 247.230,123.434 246.592,122.974 246.010 C 122.096 244.898,120.729 244.507,121.100 245.474 M280.515 254.196 C 279.057 254.485,278.613 294.603,280.065 294.982 C 280.424 295.076,280.581 295.332,280.465 295.633 C 280.310 296.038,280.222 296.047,279.992 295.684 C 279.765 295.325,279.703 295.336,279.679 295.739 C 279.627 296.583,279.425 297.462,279.239 297.648 C 278.859 298.028,279.933 298.635,280.986 298.635 C 281.597 298.635,282.197 298.787,282.318 298.973 C 283.052 300.093,293.773 298.761,295.206 297.372 C 295.739 296.855,296.286 296.500,296.421 296.583 C 296.790 296.811,297.500 295.820,297.253 295.421 C 297.134 295.229,296.449 294.979,295.729 294.863 L 294.420 294.654 294.328 289.767 L 294.236 284.879 292.648 284.572 L 291.061 284.266 291.061 279.519 L 291.061 274.773 292.693 274.556 L 294.326 274.340 294.477 268.582 C 294.652 261.910,294.787 262.239,291.873 262.282 C 289.234 262.322,288.402 261.893,289.266 260.938 C 289.575 260.597,290.105 260.317,290.444 260.317 C 290.784 260.317,291.061 260.149,291.061 259.942 C 291.061 259.682,291.213 259.694,291.559 259.980 C 292.223 260.532,294.403 260.130,294.403 259.456 C 294.403 259.183,294.140 258.873,293.818 258.767 C 293.101 258.531,290.742 257.419,290.058 256.995 C 289.783 256.825,289.069 256.488,288.471 256.247 C 287.319 255.783,287.121 255.470,287.803 255.188 C 288.033 255.094,287.743 255.097,287.160 255.197 C 286.325 255.340,286.007 255.229,285.660 254.673 C 285.225 253.978,282.764 253.750,280.515 254.196  M -25 0 L -5 0 L -5 20 L -25 20 Z M 405 0 L 425 0 L 425 20 L 405 20 Z" stroke="none" fill="#c280ea" fill-rule="evenodd" transform="translate(30,393)"></path><path id="path4" d="M75.418 76.072 C 74.982 76.508,75.190 76.859,75.884 76.859 C 76.273 76.859,76.522 76.684,76.448 76.462 C 76.285 75.974,75.727 75.763,75.418 76.072 M68.831 99.253 C 67.951 99.797,67.829 114.203,67.918 207.551 C 67.986 279.451,68.088 297.744,68.425 298.149 C 68.756 298.548,69.365 298.622,71.265 298.495 C 74.106 298.306,74.781 297.911,73.253 297.334 C 72.663 297.112,72.182 296.850,72.184 296.752 C 72.191 296.455,74.644 295.379,75.455 295.318 C 76.213 295.261,76.214 295.258,75.537 294.748 L 74.858 294.236 74.855 198.189 C 74.853 145.363,74.780 102.071,74.693 101.984 C 74.606 101.896,73.779 101.752,72.856 101.664 C 70.899 101.475,70.602 100.933,72.431 100.889 L 73.684 100.859 72.536 100.529 C 71.267 100.165,71.627 99.623,73.183 99.557 C 73.895 99.527,73.848 99.473,72.864 99.191 C 71.931 98.923,71.636 98.961,71.324 99.388 C 70.845 100.042,70.544 100.051,69.860 99.432 C 69.504 99.110,69.159 99.050,68.831 99.253 M152.139 101.049 C 151.879 101.362,150.755 101.625,149.048 101.774 C 147.235 101.932,146.366 102.144,146.366 102.430 C 146.366 102.662,145.990 102.946,145.530 103.061 C 145.071 103.177,144.695 103.418,144.695 103.599 C 144.695 103.779,143.904 103.926,142.938 103.926 C 141.705 103.926,140.713 104.176,139.612 104.762 C 138.749 105.221,137.794 105.597,137.490 105.597 C 137.187 105.597,136.390 106.031,135.721 106.561 C 135.051 107.091,133.939 107.760,133.250 108.048 C 132.561 108.335,131.997 108.805,131.997 109.092 C 131.997 109.389,131.414 109.846,130.641 110.155 C 129.816 110.485,129.349 110.864,129.448 111.122 C 129.635 111.608,128.671 111.935,127.032 111.942 C 126.266 111.945,125.962 112.081,126.072 112.369 C 126.302 112.968,124.639 114.816,123.642 115.070 C 121.697 115.565,121.812 114.541,121.719 132.235 C 121.616 151.740,121.526 150.971,123.681 149.015 C 124.303 148.450,125.865 147.182,127.151 146.197 C 128.438 145.212,130.309 143.775,131.310 143.003 C 132.311 142.230,133.627 141.391,134.234 141.137 C 134.841 140.884,135.338 140.510,135.338 140.307 C 135.338 140.096,135.642 140.018,136.050 140.125 C 136.448 140.229,136.969 140.105,137.230 139.844 C 137.487 139.587,138.558 139.128,139.609 138.825 C 140.660 138.521,141.792 138.133,142.124 137.961 C 142.716 137.654,147.823 136.240,150.640 135.603 C 151.562 135.394,152.218 135.394,152.478 135.601 C 152.849 135.897,160.028 135.823,160.331 135.520 C 160.402 135.449,160.033 135.163,159.512 134.884 L 158.563 134.377 159.649 133.989 C 160.246 133.776,160.735 133.410,160.735 133.174 C 160.735 132.939,160.967 132.554,161.251 132.319 C 161.704 131.943,161.756 130.085,161.680 117.014 C 161.613 105.567,161.687 102.105,162.000 102.001 C 162.223 101.927,162.406 101.744,162.406 101.596 C 162.406 100.779,152.791 100.267,152.139 101.049 M121.079 124.478 C 121.080 125.764,121.141 126.250,121.213 125.556 C 121.285 124.863,121.284 123.811,121.210 123.217 C 121.136 122.624,121.077 123.191,121.079 124.478 M222.306 143.268 C 222.076 143.349,221.888 143.543,221.888 143.700 C 221.888 143.857,220.914 145.422,219.723 147.179 C 218.532 148.935,217.465 150.741,217.352 151.192 C 217.239 151.643,216.785 152.248,216.345 152.537 C 215.904 152.826,215.560 153.172,215.581 153.306 C 215.748 154.400,215.391 155.536,214.587 156.463 C 214.063 157.067,213.531 158.012,213.405 158.563 C 213.189 159.509,212.449 161.294,211.812 162.406 C 211.264 163.361,209.884 168.221,209.487 170.593 C 209.334 171.512,209.071 172.565,208.904 172.932 C 208.551 173.710,207.226 180.150,207.117 181.621 C 207.076 182.172,206.894 182.826,206.711 183.074 C 206.513 183.343,206.338 187.797,206.278 194.102 C 206.223 199.919,206.096 204.896,205.998 205.162 C 205.899 205.428,206.044 207.233,206.319 209.172 C 206.595 211.112,206.985 214.202,207.186 216.040 C 207.701 220.743,208.080 223.117,208.397 223.624 C 208.547 223.864,209.009 225.338,209.424 226.901 C 210.823 232.171,211.186 233.415,211.518 234.085 C 211.700 234.453,212.009 235.129,212.205 235.589 C 212.400 236.048,212.777 236.800,213.042 237.260 C 213.307 237.719,213.526 238.422,213.529 238.821 C 213.532 239.221,214.108 240.123,214.810 240.826 C 215.852 241.870,216.194 242.562,216.672 244.590 C 217.380 247.599,217.755 248.351,219.514 250.292 C 220.681 251.580,221.101 252.601,220.925 253.718 C 220.903 253.855,221.109 253.968,221.382 253.968 C 221.656 253.968,222.099 254.495,222.368 255.138 C 222.998 256.647,223.420 256.620,223.679 255.054 C 223.969 253.295,223.944 249.282,223.642 249.329 C 222.776 249.466,222.556 249.184,222.556 247.931 C 222.556 246.724,222.631 246.595,223.225 246.784 C 224.030 247.039,224.311 203.807,223.508 203.310 C 223.131 203.077,223.294 171.677,223.743 157.950 C 223.911 152.836,223.894 152.653,223.236 152.481 C 222.377 152.256,222.376 151.537,223.235 149.862 C 224.533 147.328,223.884 142.718,222.306 143.268 M221.515 154.470 C 221.494 155.434,221.408 155.961,221.324 155.639 C 221.239 155.317,221.031 155.054,220.861 155.054 C 220.691 155.054,220.551 154.754,220.551 154.386 C 220.551 154.018,220.702 153.718,220.886 153.718 C 221.069 153.718,221.220 153.492,221.220 153.216 C 221.220 152.941,221.295 152.715,221.387 152.715 C 221.479 152.715,221.536 153.505,221.515 154.470 M122.075 248.705 C 121.655 249.353,121.516 273.971,121.929 274.468 C 122.163 274.751,122.170 275.625,121.949 277.183 C 121.567 279.883,121.980 281.704,122.976 281.704 C 123.575 281.704,124.979 283.152,124.979 283.770 C 124.979 284.361,126.846 285.712,129.574 287.097 C 131.090 287.867,132.331 288.623,132.331 288.777 C 132.331 288.930,132.646 289.056,133.031 289.056 C 133.679 289.056,135.622 289.955,136.007 290.433 C 136.315 290.816,140.326 292.732,140.819 292.732 C 141.598 292.732,142.313 293.659,142.115 294.415 C 141.941 295.083,142.021 295.099,144.401 294.886 C 146.441 294.704,147.212 294.787,148.861 295.370 C 149.957 295.757,151.185 296.074,151.590 296.074 C 151.994 296.074,152.381 296.241,152.449 296.446 C 152.666 297.095,161.030 297.234,161.276 296.593 C 161.385 296.307,161.684 296.074,161.941 296.074 C 162.197 296.074,162.406 295.923,162.406 295.739 C 162.406 295.556,162.105 295.405,161.738 295.405 C 161.033 295.405,160.838 294.919,161.404 294.570 C 162.161 294.102,161.825 264.877,161.057 264.397 C 160.683 264.164,160.420 263.720,160.472 263.411 C 160.627 262.506,159.177 262.055,154.885 261.673 C 152.681 261.476,149.825 261.091,148.538 260.816 C 147.252 260.542,145.347 260.317,144.305 260.317 C 143.264 260.317,142.359 260.159,142.295 259.966 C 142.230 259.773,140.799 259.024,139.115 258.302 C 137.430 257.581,135.511 256.686,134.850 256.314 C 134.188 255.943,133.369 255.639,133.028 255.639 C 132.687 255.639,132.334 255.354,132.243 255.006 C 132.147 254.637,131.656 254.281,131.063 254.150 C 130.504 254.028,129.964 253.711,129.863 253.447 C 129.761 253.182,129.403 252.966,129.066 252.966 C 128.730 252.966,127.635 252.244,126.633 251.361 C 123.419 248.530,122.525 248.009,122.075 248.705  M -25 0 L -5 0 L -5 20 L -25 20 Z M 405 0 L 425 0 L 425 20 L 405 20 Z" stroke="none" fill="#a67df9" fill-rule="evenodd" transform="translate(490,393)"></path></g></svg>